#!OML:ASF F:\VICON\USERDATA\INSTALL\rory3\rory3.ASF
:FULLY-SPECIFIED
:DEGREES
229
root -0.522613 19.0795 10.123 -166.938 -3.65238 -180.178
lowerback 7.87448 2.21422 -3.34294
upperback 1.47538 2.60638 0.900246
thorax -3.07719 1.29192 2.5368
lowerneck -16.2169 1.30751 -9.76617
upperneck 37.5769 0.393954 3.37944
head 16.0403 -1.87698 2.95685
rclavicle 2.23633e-014 7.95139e-016
rhumerus -28.0696 -6.02823 -80.4483
rradius 38.6183
rwrist 18.6381
rhand -21.0272 3.71146
rfingers 7.12502
rthumb 5.34805 -26.2011
lclavicle 2.23633e-014 7.95139e-016
lhumerus -31.7013 10.4455 82.2967
lradius 32.5537
lwrist -4.10834
lhand -13.9194 25.8076
lfingers 7.12502
lthumb 12.2068 55.4314
rfemur -13.677 -3.46451 21.9358
rtibia 25.5435
rfoot 6.62217 -5.34705
rtoes 8.47062
lfemur -52.2207 2.87508 -26.3569
ltibia 72.8905
lfoot -24.1604 -9.53341
ltoes -8.06071
230
root -0.542111 19.1522 10.0639 -167.054 -3.56702 -179.949
lowerback 7.8773 2.18652 -3.26603
upperback 1.52349 2.57479 0.959485
thorax -3.02609 1.27278 2.55942
lowerneck -16.2338 1.30716 -9.82668
upperneck 37.5471 0.355971 3.54353
head 16.0295 -1.8763 3.03276
rclavicle -6.95746e-015 3.97569e-015
rhumerus -28.0834 -6.08639 -80.4034
rradius 38.6889
rwrist 18.4634
rhand -21.2363 3.81568
rfingers 7.12502
rthumb 5.14617 -26.1018
lclavicle -6.95746e-015 3.97569e-015
lhumerus -31.5103 9.96388 82.4499
lradius 32.5642
lwrist -3.8457
lhand -13.9115 25.6431
lfingers 7.12502
lthumb 12.2144 55.2664
rfemur -14.6468 -3.95194 22.0239
rtibia 27.3419
rfoot 7.59035 -5.86875
rtoes 8.02972
lfemur -51.2619 3.17512 -26.1706
ltibia 71.6723
lfoot -24.1071 -9.81376
ltoes -7.14928
231
root -0.561263 19.2313 10.0038 -167.257 -3.35869 -179.803
lowerback 7.94377 2.20131 -3.29287
upperback 1.57823 2.58677 0.983015
thorax -3.00954 1.27605 2.59652
lowerneck -16.2082 1.31352 -9.83371
upperneck 37.5179 0.334837 3.6117
head 16.0088 -1.87678 3.05892
rclavicle 1.40143e-014 -1.98785e-015
rhumerus -28.1783 -6.14577 -80.3289
rradius 38.8074
rwrist 18.5229
rhand -21.6732 3.80625
rfingers 7.12502
rthumb 4.72438 -26.1211
lclavicle 1.40143e-014 -1.98785e-015
lhumerus -31.4323 9.28825 82.616
lradius 32.7736
lwrist -3.49645
lhand -13.947 25.4881
lfingers 7.12502
lthumb 12.1802 55.1135
rfemur -15.6078 -4.51653 22.044
rtibia 29.4871
rfoot 7.65268 -5.85237
rtoes 6.96325
lfemur -50.2363 3.56691 -26.1344
ltibia 70.3851
lfoot -24.0575 -9.84489
ltoes -7.61492
232
root -0.58215 19.3104 9.94905 -167.449 -3.11115 -179.749
lowerback 8.12142 2.19485 -3.38774
upperback 1.53615 2.56316 0.967274
thorax -3.15381 1.26791 2.62946
lowerneck -16.0769 1.4184 -9.66596
upperneck 37.5484 0.425465 3.5107
head 15.9837 -1.8422 2.99696
rclavicle 3.20043e-014 1.33186e-014
rhumerus -28.4343 -6.05606 -80.3123
rradius 39.0461
rwrist 18.4797
rhand -21.6743 2.65451
rfingers 7.12502
rthumb 4.72323 -27.2728
lclavicle 3.20043e-014 1.33186e-014
lhumerus -31.5421 8.71867 82.6518
lradius 33.057
lwrist -3.47712
lhand -13.8022 25.4998
lfingers 7.12502
lthumb 12.3198 55.1168
rfemur -16.7501 -5.2945 21.9989
rtibia 32.0029
rfoot 6.93952 -5.569
rtoes 5.82543
lfemur -49.1557 3.91663 -26.1912
ltibia 69.1649
lfoot -24.1525 -9.65673
ltoes -8.71593
233
root -0.60578 19.3854 9.89874 -167.589 -2.77801 -179.735
lowerback 8.26879 2.18838 -3.50398
upperback 1.51409 2.53705 0.933502
thorax -3.26035 1.25757 2.65753
lowerneck -16.1852 1.54048 -9.57494
upperneck 37.6706 0.564553 3.52081
head 16.0574 -1.784 3.01099
rclavicle -1.94809e-014 1.98785e-015
rhumerus -28.5587 -5.92171 -80.3444
rradius 39.3203
rwrist 18.3935
rhand -21.4862 1.85603
rfingers 7.12502
rthumb 4.90489 -28.0672
lclavicle -1.94809e-014 1.98785e-015
lhumerus -31.5702 8.27665 82.6652
lradius 33.3004
lwrist -3.58707
lhand -13.5387 25.1868
lfingers 7.12502
lthumb 12.5739 54.7884
rfemur -18.1603 -6.12711 21.9445
rtibia 34.8763
rfoot 5.84541 -5.52538
rtoes 5.31562
lfemur -48.0246 4.27703 -26.2718
ltibia 68.0458
lfoot -24.161 -9.527
ltoes -8.5634
